<svg height="512pt" viewBox="0 0 512.00088 512" width="512pt" xmlns="http://www.w3.org/2000/svg"><path d="m196.265625 8.535156c9.425781 0 17.070313 7.640625 17.070313 17.066406v68.265626h-34.136719v-68.265626c0-9.425781 7.644531-17.066406 17.066406-17.066406zm0 0" fill="#607d8b"/><path d="m435.199219 8.535156c9.425781 0 17.066406 7.640625 17.066406 17.066406v68.265626h-34.132813v-68.265626c0-9.425781 7.640626-17.066406 17.066407-17.066406zm0 0" fill="#607d8b"/><path d="m477.867188 477.867188h-324.265626l5.289063-83.113282 14.167969-222.039062 6.140625-95.914063h273.066406zm0 0" fill="#607d8b"/><path d="m443.734375 477.867188h-290.132813l5.289063-83.113282 14.167969-222.039062 6.140625-95.914063h238.933593zm0 0" fill="#cfd8dc"/><path d="m503.46875 486.402344v17.066406h-375.46875v-17.066406c.027344-9.414063 7.652344-17.039063 17.066406-17.070313h341.335938c9.414062.03125 17.035156 7.65625 17.066406 17.070313zm0 0" fill="#607d8b"/><path d="m469.335938 486.402344v17.066406h-341.335938v-17.066406c.027344-9.414063 7.652344-17.039063 17.066406-17.070313h307.199219c9.414063.03125 17.039063 7.65625 17.070313 17.070313zm0 0" fill="#cfd8dc"/><path d="m241.273438 170.667969c-4.378907.285156-8.46875-2.191407-10.242188-6.203125l-8.53125-26.386719c-3.054688-9.453125 6.1875-18.609375 18.773438-18.609375h.050781c12.59375 0 21.835937 9.15625 18.773437 18.609375l-8.535156 26.386719c-1.777344 4.027344-5.894531 6.507812-10.289062 6.203125zm0 0" fill="#37474f"/><path d="m315.734375 170.667969c-4.378906.285156-8.464844-2.191407-10.238281-6.203125l-8.535156-26.386719c-3.089844-9.453125 6.152343-18.609375 18.773437-18.609375 12.59375 0 21.835937 9.15625 18.773437 18.609375l-8.535156 26.386719c-1.773437 4.011718-5.863281 6.488281-10.238281 6.203125zm0 0" fill="#37474f"/><path d="m390.214844 170.667969c-4.378906.285156-8.46875-2.191407-10.242188-6.203125l-8.53125-26.386719c-3.054687-9.453125 6.183594-18.609375 18.773438-18.609375h.050781c12.59375 0 21.835937 9.15625 18.773437 18.609375l-8.535156 26.386719c-1.78125 4.027344-5.894531 6.507812-10.289062 6.203125zm0 0" fill="#37474f"/><path d="m315.734375 256c-4.378906.285156-8.464844-2.191406-10.238281-6.203125l-8.535156-26.386719c-3.089844-9.453125 6.152343-18.609375 18.773437-18.609375 12.59375 0 21.835937 9.15625 18.773437 18.609375l-8.535156 26.386719c-1.773437 4.011719-5.863281 6.488281-10.238281 6.203125zm0 0" fill="#37474f"/><path d="m390.214844 256c-4.378906.285156-8.46875-2.191406-10.242188-6.203125l-8.53125-26.386719c-3.054687-9.453125 6.183594-18.609375 18.773438-18.609375h.050781c12.59375 0 21.835937 9.15625 18.773437 18.609375l-8.535156 26.386719c-1.78125 4.03125-5.894531 6.511719-10.289062 6.203125zm0 0" fill="#37474f"/><path d="m315.734375 341.332031c-4.378906.285157-8.464844-2.191406-10.238281-6.203125l-8.535156-26.382812c-3.089844-9.457032 6.152343-18.613282 18.773437-18.613282 12.59375 0 21.835937 9.15625 18.773437 18.613282l-8.535156 26.382812c-1.773437 4.011719-5.863281 6.488282-10.238281 6.203125zm0 0" fill="#37474f"/><path d="m390.214844 341.332031c-4.378906.285157-8.46875-2.191406-10.242188-6.203125l-8.53125-26.382812c-3.054687-9.457032 6.183594-18.613282 18.773438-18.613282h.050781c12.59375 0 21.835937 9.15625 18.773437 18.613282l-8.535156 26.382812c-1.78125 4.03125-5.894531 6.511719-10.289062 6.203125zm0 0" fill="#37474f"/><path d="m241.273438 426.667969c-4.378907.285156-8.46875-2.191407-10.242188-6.203125l-8.53125-26.386719c-3.054688-9.453125 6.1875-18.609375 18.773438-18.609375h.050781c12.59375 0 21.835937 9.15625 18.773437 18.609375l-8.535156 26.386719c-1.777344 4.027344-5.894531 6.507812-10.289062 6.203125zm0 0" fill="#37474f"/><path d="m241.273438 341.332031c-4.378907.285157-8.46875-2.191406-10.242188-6.203125l-8.53125-26.382812c-3.054688-9.457032 6.1875-18.613282 18.773438-18.613282h.050781c12.59375 0 21.835937 9.15625 18.773437 18.613282l-8.535156 26.382812c-1.777344 4.03125-5.894531 6.511719-10.289062 6.203125zm0 0" fill="#37474f"/><path d="m315.734375 426.667969c-4.378906.285156-8.464844-2.191407-10.238281-6.203125l-8.535156-26.386719c-3.089844-9.453125 6.152343-18.609375 18.773437-18.609375 12.59375 0 21.835937 9.15625 18.773437 18.609375l-8.535156 26.386719c-1.773437 4.011718-5.863281 6.488281-10.238281 6.203125zm0 0" fill="#37474f"/><path d="m390.214844 426.667969c-4.378906.285156-8.46875-2.191407-10.242188-6.203125l-8.53125-26.386719c-3.054687-9.453125 6.183594-18.609375 18.773438-18.609375h.050781c12.59375 0 21.835937 9.15625 18.773437 18.609375l-8.535156 26.386719c-1.78125 4.027344-5.894531 6.507812-10.289062 6.203125zm0 0" fill="#37474f"/><path d="m264.535156 170.667969v87.550781c-11.992187 4.214844-21.109375 14.105469-24.34375 26.398438-3.230468 12.292968-.152344 25.390624 8.214844 34.957031l-89.515625 68.4375-39.421875 30.121093c-29.421875 0-57.640625-11.6875-78.441406-32.492187-20.804688-20.800781-32.492188-49.019531-32.492188-78.441406v-136.53125zm0 0" fill="#fdd834"/><path d="m214.273438 174.507812-89.515626 68.4375-39.421874 30.121094c-28.65625.0625-56.207032-11.050781-76.800782-30.976562v-71.421875h202.75c.902344 1.351562 1.898438 2.632812 2.988282 3.839843zm0 0" fill="#ffeb3a"/><path d="m85.335938 281.601562v131.15625c-45.722657-14.894531-76.699219-57.472656-76.800782-105.558593v-102.398438c1.109375 1.109375 2.21875 2.132813 3.328125 3.15625 13.394531 11.949219 29.78125 60.84375 47.871094 65.109375 8.191406 1.964844 16.808594 8.535156 25.601563 8.535156zm0 0" fill="#ffeb3a"/><path d="m264.535156 170.667969v87.550781c-11.992187 4.214844-21.109375 14.105469-24.34375 26.398438-3.230468 12.292968-.152344 25.390624 8.214844 34.957031l-89.515625 68.4375-39.421875 30.121093v-136.53125l48.808594-37.292968 70.65625-54.015625zm0 0" fill="#ffb301"/><path d="m110.933594 292.609375 48.8125-37.292969 70.65625-54.015625v50.859375c-11.992188 4.214844-21.109375 14.105469-24.34375 26.398438-3.230469 12.292968-.152344 25.390625 8.214844 34.957031l-89.515626 68.4375-13.824218 10.582031zm0 0" fill="#fec108"/><path d="m204.800781 290.132812c0 9.425782-7.640625 17.066407-17.066406 17.066407s-17.066406-7.640625-17.066406-17.066407c0-9.425781 7.640625-17.066406 17.066406-17.066406s17.066406 7.640625 17.066406 17.066406zm0 0" fill="#f57c00"/><path d="m85.335938 328.535156c0 11.78125-9.554688 21.332032-21.335938 21.332032s-21.332031-9.550782-21.332031-21.332032c0-11.785156 9.550781-21.335937 21.332031-21.335937s21.335938 9.550781 21.335938 21.335937zm0 0" fill="#f57c00"/><path d="m110.933594 221.867188c0 9.425781-7.640625 17.066406-17.066406 17.066406-9.425782 0-17.066407-7.640625-17.066407-17.066406 0-9.425782 7.640625-17.066407 17.066407-17.066407 9.425781 0 17.066406 7.640625 17.066406 17.066407zm0 0" fill="#f57c00"/><g fill="none" stroke="#000" stroke-linecap="round" stroke-linejoin="round" stroke-width="2" transform="matrix(8.533333 0 0 8.533333 8.534187 8.533773)"><path d="m19.280204 19.000101.719604-11.000061h31.99997l3.000183 45.999756h-37.999878l.619812-9.529724"/><path d="m15.999869 53.999796h40.000306c1.104583 0 1.999969.895843 1.999969 2.000427v1.99997h-44.000244v-1.99997c0-1.104584.895386-2.000427 1.999969-2.000427zm0 0"/><path d="m21.999778.00016206c1.104584 0 2.000427.89538594 2.000427 1.99996994v5.999908h-4.000397v-5.999908c0-1.104584.895844-1.99996994 1.99997-1.99996994zm0 0"/><path d="m49.999808.00016206c1.104584 0 1.99997.89538594 1.99997 1.99996994v5.999908h-3.999939v-5.999908c0-1.104584.895386-1.99996994 1.999969-1.99996994zm0 0"/><path d="m24.000205 2.999887h23.999634"/><path d="m27.274131 19.000101c-.513153.033417-.992432-.256805-1.200256-.726929l-.999756-3.092193c-.357971-1.107788.725097-2.180786 2.200012-2.180786h.005951c1.47583 0 2.558899 1.072998 2.200012 2.180786l-1.000214 3.092193c-.208282.471955-.690765.762635-1.205749.726929zm0 0"/><path d="m36.000022 19.000101c-.513153.033417-.991974-.256805-1.199799-.726929l-1.000213-3.092193c-.362091-1.107788.720978-2.180786 2.200012-2.180786 1.47583 0 2.558899 1.072998 2.200012 2.180786l-1.000213 3.092193c-.207825.470124-.687104.760346-1.199799.726929zm0 0"/><path d="m44.728202 19.000101c-.513153.033417-.992432-.256805-1.200256-.726929l-.999756-3.092193c-.357971-1.107788.72464-2.180786 2.200012-2.180786h.005951c1.47583 0 2.558899 1.072998 2.200012 2.180786l-1.000213 3.092193c-.208741.471955-.690766.762635-1.20575.726929zm0 0"/><path d="m36.000022 28.999948c-.513153.033417-.991974-.256805-1.199799-.726928l-1.000213-3.092194c-.362091-1.107788.720978-2.180786 2.200012-2.180786 1.47583 0 2.558899 1.072998 2.200012 2.180786l-1.000213 3.092194c-.207825.470123-.687104.760345-1.199799.726928zm0 0"/><path d="m44.728202 28.999948c-.513153.033417-.992432-.256805-1.200256-.726928l-.999756-3.092194c-.357971-1.107788.72464-2.180786 2.200012-2.180786h.005951c1.47583 0 2.558899 1.072998 2.200012 2.180786l-1.000213 3.092194c-.208741.472412-.690766.763092-1.20575.726928zm0 0"/><path d="m36.000022 38.999796c-.513153.033417-.991974-.256806-1.199799-.726929l-1.000213-3.091736c-.362091-1.108246.720978-2.181244 2.200012-2.181244 1.47583 0 2.558899 1.072998 2.200012 2.181244l-1.000213 3.091736c-.207825.470123-.687104.760346-1.199799.726929zm0 0"/><path d="m44.728202 38.999796c-.513153.033417-.992432-.256806-1.200256-.726929l-.999756-3.091736c-.357971-1.108246.72464-2.181244 2.200012-2.181244h.005951c1.47583 0 2.558899 1.072998 2.200012 2.181244l-1.000213 3.091736c-.208741.472412-.690766.763092-1.20575.726929zm0 0"/><path d="m27.274131 49.000101c-.513153.033417-.992432-.256805-1.200256-.726929l-.999756-3.092193c-.357971-1.107788.725097-2.180786 2.200012-2.180786h.005951c1.47583 0 2.558899 1.072998 2.200012 2.180786l-1.000214 3.092193c-.208282.471955-.690765.762635-1.205749.726929zm0 0"/><path d="m36.000022 49.000101c-.513153.033417-.991974-.256805-1.199799-.726929l-1.000213-3.092193c-.362091-1.107788.720978-2.180786 2.200012-2.180786 1.47583 0 2.558899 1.072998 2.200012 2.180786l-1.000213 3.092193c-.207825.470124-.687104.760346-1.199799.726929zm0 0"/><path d="m44.728202 49.000101c-.513153.033417-.992432-.256805-1.200256-.726929l-.999756-3.092193c-.357971-1.107788.72464-2.180786 2.200012-2.180786h.005951c1.47583 0 2.558899 1.072998 2.200012 2.180786l-1.000213 3.092193c-.208741.471955-.690766.762635-1.20575.726929zm0 0"/><path d="m30.000114 19.000101-11.280213 8.629761-5.719757 4.37027c-7.180023 0-13.00003038-5.820466-13.00003038-13.000031zm0 0"/><path d="m.00011362 34.999857c0 3.447876 1.36962938 6.754761 3.80767838 9.192352 2.437591 2.438049 5.744476 3.807678 9.192352 3.807678l4.619751-3.529815 10.490112-8.02002"/><path d="m.00011362 19.000101v15.999756"/><path d="m30.000114 29.259958v-10.259857"/><path d="m13.000144 47.999887v-15.999755"/><path d="m22.999992 32.999887c0 1.104584-.895386 1.99997-1.99997 1.99997s-1.999969-.895386-1.999969-1.99997c0-1.104583.895385-1.999969 1.999969-1.999969s1.99997.895386 1.99997 1.999969zm0 0"/><path d="m9.000205 37.500162c0 1.380615-1.11969 2.499847-2.500305 2.499847s-2.499847-1.119232-2.499847-2.499847c0-1.381073 1.119232-2.500305 2.499847-2.500305s2.500305 1.119232 2.500305 2.500305zm0 0"/><path d="m11.999931 25.000009c0 1.104584-.895386 1.99997-1.99997 1.99997s-1.999969-.895386-1.999969-1.99997c0-1.104583.895385-1.999969 1.999969-1.999969s1.99997.895386 1.99997 1.999969zm0 0"/><path d="m30.000114 29.259958c-1.405335.493927-2.473755 1.652985-2.852784 3.093567-.37857 1.440582-.017852 2.975464.962677 4.096527"/></g></svg>