<?xml version="1.0" encoding="iso-8859-1"?>
<!-- Generator: Adobe Illustrator 19.0.0, SVG Export Plug-In . SVG Version: 6.00 Build 0)  -->
<svg version="1.1" id="Capa_1" xmlns="http://www.w3.org/2000/svg" xmlns:xlink="http://www.w3.org/1999/xlink" x="0px" y="0px"
	 viewBox="0 0 512 512" style="enable-background:new 0 0 512 512;" xml:space="preserve">
<path style="fill:#FFCF65;" d="M307.478,138.071c0,0-115.097-0.459-140.589-0.14c-2.215-0.143-5.809-0.376-8.024-0.52
	c-8.528-0.92-16.362,5.67-16.362,14.647v256.224c0,19.307,23.339,28.976,36.989,15.324L437.94,235.12L307.478,138.071z"/>
<path style="fill:#FFB450;" d="M406.956,212.072L205.719,351.339c-20.241,11.354-39.497,7.265-63.216,7.428v49.516
	c0,6.368,2.636,12.071,6.978,15.979l0.001-0.001c7.973,7.224,21.07,8.288,30.01-0.654L437.94,235.121L406.956,212.072z"/>
<path style="fill:#B9785F;" d="M436.359,187.668C365.604,126.932,275.909,87.673,177.482,80.1
	c-18.869-1.452-34.98,13.5-34.98,32.429c0,11.926,7.945,22.474,19.469,25.543c3.51,0.935,7.155,1.563,10.907,1.852
	c83.174,6.399,160.771,38.652,224.4,93.272c2.747,2.358,5.646,4.424,8.66,6.2c10.333,6.09,23.52,4.207,32.001-4.274l0.002-0.001
	C451.236,221.822,450.627,199.915,436.359,187.668z"/>
<path style="fill:#9B5F50;" d="M423.798,220.979c-2.087,2.088-5.327,2.588-7.708,1.184c-2.025-1.192-3.972-2.587-5.785-4.143
	c-66.878-57.409-148.449-91.31-235.896-98.038c-2.468-0.189-4.921-0.605-7.292-1.236c-8.036-2.142-16.229,0.932-21.003,7.136
	c3.401,5.857,8.983,10.36,15.857,12.19c3.51,0.935,7.155,1.563,10.907,1.852c83.174,6.399,160.771,38.652,224.4,93.272
	c2.747,2.358,5.646,4.424,8.66,6.2c10.333,6.09,23.52,4.207,32.001-4.274l0.002-0.001c5.027-5.028,8.063-11.288,9.127-17.791
	C439.548,213.468,430.096,214.68,423.798,220.979z"/>
<g>
	<circle style="fill:#F05467;" cx="185.48" cy="238.5" r="25"/>
	<circle style="fill:#F05467;" cx="305.45" cy="282.5" r="15"/>
	<path style="fill:#F05467;" d="M256,7.5C118.757,7.5,7.5,118.757,7.5,256S118.757,504.5,256,504.5S504.5,393.243,504.5,256
		S393.243,7.5,256,7.5z M101.497,101.497C142.767,60.228,197.637,37.5,256,37.5c48.511,0,94.604,15.71,132.483,44.713
		c7.221,5.529,7.968,16.132,1.537,22.563L104.776,390.02c-6.431,6.431-17.034,5.684-22.563-1.537
		C53.211,350.604,37.5,304.512,37.5,256C37.5,197.637,60.228,142.767,101.497,101.497z M410.503,410.503
		C369.233,451.772,314.363,474.5,256,474.5c-46.45,0-90.682-14.405-127.61-41.089c-7.484-5.408-8.34-16.239-1.811-22.768
		l284.063-284.064c6.529-6.529,17.36-5.672,22.768,1.811c26.684,36.928,41.09,81.16,41.09,127.61
		C474.5,314.363,451.772,369.233,410.503,410.503z"/>
</g>
<path d="M166.04,188.479l40.851-17.795c0.887-0.387,1.662-0.925,2.308-1.57c2.116-2.116,2.84-5.391,1.573-8.301
	c-1.654-3.798-6.074-5.535-9.871-3.881l-40.851,17.795c-3.794,1.658-5.535,6.074-3.88,9.872
	C157.823,188.396,162.242,190.133,166.04,188.479z"/>
<path d="M196.828,191.63c-0.065,4.142,3.239,7.553,7.381,7.618l44.553,0.705c0.968,0.015,1.896-0.154,2.751-0.474
	c2.802-1.051,4.817-3.733,4.867-6.906c0.065-4.142-3.239-7.553-7.38-7.618l-44.553-0.705
	C200.305,184.188,196.893,187.488,196.828,191.63z"/>
<circle cx="341.66" cy="230.16" r="7.5"/>
<path d="M185.478,271.002c17.92,0,32.5-14.579,32.5-32.5s-14.58-32.5-32.5-32.5c-4.142,0-7.5,3.357-7.5,7.5s3.358,7.5,7.5,7.5
	c9.649,0,17.5,7.851,17.5,17.5s-7.851,17.5-17.5,17.5s-17.5-7.851-17.5-17.5c0-4.143-3.358-7.5-7.5-7.5s-7.5,3.357-7.5,7.5
	C152.978,256.423,167.557,271.002,185.478,271.002z"/>
<path d="M439.489,123.997c-3.864-5.348-9.854-8.717-16.436-9.243c-6.594-0.524-13.044,1.851-17.715,6.521L381.3,145.313
	c-0.003,0.003-0.007,0.006-0.01,0.01l-43.464,43.465c-0.069,0.07-0.142,0.136-0.209,0.209L121.276,405.339
	c-2.929,2.93-2.929,7.678,0,10.607c2.929,2.928,7.678,2.928,10.606,0l3.43-3.43c0.961,6.686,4.172,12.839,9.134,17.302
	c5.626,5.098,12.69,7.63,19.732,7.63c7.286-0.001,14.55-2.712,20.168-8.098c12.107-8.818,257.786-187.816,258.898-188.929
	c7.878-7.879,12.153-18.784,11.729-29.92c-0.425-11.16-5.3-21.29-13.729-28.524c-13.575-11.654-27.941-22.587-42.796-32.598
	l17.498-17.498c1.581-1.581,3.677-2.352,5.912-2.176c2.225,0.179,4.168,1.271,5.473,3.076C453.283,168.696,467,211.305,467,256
	c0,56.359-21.948,109.346-61.801,149.199C365.347,445.052,312.36,467,256,467c-41.765,0-82.037-12.098-116.463-34.985
	c-3.448-2.292-8.104-1.355-10.398,2.094c-2.293,3.449-1.356,8.104,2.093,10.398C168.127,469.035,211.271,482,256,482
	c60.367,0,117.12-23.508,159.807-66.193C458.492,373.119,482,316.366,482,256C482,208.13,467.3,162.484,439.489,123.997z
	 M431.475,193.358c5.223,4.484,8.245,10.774,8.509,17.714c0.259,6.795-2.274,13.452-6.966,18.354
	c-12.488,9.109-255.53,186.359-257.945,188.121c-0.314,0.229-0.61,0.481-0.884,0.757c-6.209,6.207-14.771,4.838-19.69,0.383
	c-2.899-2.609-4.496-6.305-4.496-10.404v-10.457L344.27,203.559c6.863,4.276,13.663,8.801,20.269,13.519
	c2.533,1.809,3.973,4.621,3.95,7.716c-0.022,3.053-1.478,5.802-3.991,7.542c-3.406,2.357-4.257,7.029-1.899,10.435
	c1.456,2.104,3.795,3.233,6.174,3.233c1.472,0,2.959-0.433,4.261-1.334c6.489-4.49,10.397-11.879,10.455-19.766
	c0.059-7.927-3.767-15.416-10.232-20.033c-5.915-4.224-11.981-8.296-18.109-12.189l32.489-32.489
	C402.873,170.317,417.6,181.449,431.475,193.358z"/>
<path d="M437.02,74.98C388.668,26.629,324.38,0,256,0S123.333,26.629,74.98,74.98C26.629,123.333,0,187.62,0,256
	s26.629,132.667,74.98,181.02C123.333,485.371,187.62,512,256,512s132.668-26.629,181.02-74.98C485.371,388.667,512,324.38,512,256
	S485.371,123.333,437.02,74.98z M256,497C123.112,497,15,388.888,15,256S123.112,15,256,15s241,108.112,241,241S388.888,497,256,497
	z"/>
<path d="M395.324,99.472c-2.93-2.928-7.678-2.928-10.607,0l-25.966,25.966C302.539,95.29,241.778,77.524,178.058,72.622
	c-11.063-0.855-22.074,2.986-30.219,10.529c-8.158,7.554-12.836,18.262-12.836,29.377c0,8.398,3.075,16.227,8.263,22.247
	c-0.312,0.251-0.618,0.51-0.917,0.779c-4.668,4.192-7.346,10.208-7.346,16.504v197.128l-35.53,35.53
	c-1.545,1.546-3.604,2.324-5.78,2.174c-2.209-0.146-4.171-1.199-5.524-2.967C59.927,347.04,45,302.805,45,256
	c0-56.359,21.948-109.347,61.8-149.199S199.64,45,256,45c44.241,0,86.49,13.459,122.181,38.922c3.37,2.405,8.055,1.623,10.461-1.75
	c2.405-3.371,1.622-8.056-1.75-10.461C348.645,44.424,303.383,30,256,30c-60.367,0-117.121,23.508-159.806,66.193
	C53.508,138.88,30,195.634,30,256c0,50.13,15.996,97.519,46.258,137.043c3.961,5.173,9.955,8.386,16.445,8.815
	c0.496,0.032,0.99,0.049,1.483,0.049c5.939,0,11.664-2.355,15.893-6.583l285.245-285.245
	C398.253,107.149,398.253,102.401,395.324,99.472z M158.03,94.157c5.165-4.782,11.87-7.116,18.876-6.58
	c60.114,4.625,117.503,21.093,170.744,48.961l-33.432,33.432c-60.663-29.054-112.647-34.735-137.968-37.499
	c-5.601-0.61-10.438-1.139-12.349-1.647c-8.184-2.18-13.899-9.703-13.899-18.296C150.002,105.476,152.854,98.951,158.03,94.157z
	 M150.002,152.059c0-2.074,0.841-3.972,2.368-5.343c1.555-1.396,3.63-2.073,5.69-1.848c0.181,0.019,0.36,0.024,0.539,0.03
	c0.476,0.15,0.956,0.291,1.441,0.42c3.012,0.803,7.615,1.305,14.583,2.065c23.81,2.598,72.004,7.869,128.319,33.863L168.606,315.583
	c-2.865-1.64-6.577-1.245-9.023,1.202c-2.446,2.446-2.841,6.158-1.202,9.023l-8.379,8.379L150.002,152.059L150.002,152.059z"/>
<path d="M305.448,260.004c-4.143,0-7.5,3.357-7.5,7.5s3.357,7.5,7.5,7.5c4.136,0,7.5,3.364,7.5,7.5s-3.364,7.5-7.5,7.5
	s-7.5-3.364-7.5-7.5c0-4.143-3.357-7.5-7.5-7.5s-7.5,3.357-7.5,7.5c0,12.406,10.094,22.5,22.5,22.5s22.5-10.094,22.5-22.5
	S317.854,260.004,305.448,260.004z"/>
<circle cx="241.66" cy="330.17" r="7.5"/>
<g>
</g>
<g>
</g>
<g>
</g>
<g>
</g>
<g>
</g>
<g>
</g>
<g>
</g>
<g>
</g>
<g>
</g>
<g>
</g>
<g>
</g>
<g>
</g>
<g>
</g>
<g>
</g>
<g>
</g>
</svg>
